<?xml version="1.0" encoding="UTF-8"?>
<svg width="300" height="400" viewBox="0 0 300 400" xmlns="http://www.w3.org/2000/svg">
  <!-- Labubu Dancing - خطوط للتلوين -->
  
  <!-- الرأس -->
  <circle cx="150" cy="110" r="70" fill="none" stroke="#000000" stroke-width="3"/>
  
  <!-- الأذنان -->
  <ellipse cx="110" cy="70" rx="18" ry="25" transform="rotate(-20 110 70)" fill="none" stroke="#000000" stroke-width="3"/>
  <ellipse cx="190" cy="70" rx="18" ry="25" transform="rotate(20 190 70)" fill="none" stroke="#000000" stroke-width="3"/>
  
  <!-- العينان (مغلقتان بفرح) -->
  <path d="M 115 100 Q 125 95 135 100" fill="none" stroke="#000000" stroke-width="3"/>
  <path d="M 165 100 Q 175 95 185 100" fill="none" stroke="#000000" stroke-width="3"/>
  
  <!-- الأنف -->
  <circle cx="150" cy="115" r="4" fill="none" stroke="#000000" stroke-width="2"/>
  
  <!-- فم مفتوح بفرح -->
  <ellipse cx="150" cy="135" rx="15" ry="20" fill="none" stroke="#000000" stroke-width="2"/>
  
  <!-- الجسم -->
  <ellipse cx="140" cy="240" rx="50" ry="70" transform="rotate(-10 140 240)" fill="none" stroke="#000000" stroke-width="3"/>
  
  <!-- الذراع الأيمن (مرفوع) -->
  <path d="M 180 200 Q 220 160 240 120" fill="none" stroke="#000000" stroke-width="3"/>
  <circle cx="240" cy="120" r="12" fill="none" stroke="#000000" stroke-width="2"/>
  
  <!-- الذراع الأيسر (مرفوع) -->
  <path d="M 100 210 Q 60 170 40 130" fill="none" stroke="#000000" stroke-width="3"/>
  <circle cx="40" cy="130" r="12" fill="none" stroke="#000000" stroke-width="2"/>
  
  <!-- الساق اليمنى -->
  <path d="M 160 310 Q 180 350 190 380" fill="none" stroke="#000000" stroke-width="3"/>
  <ellipse cx="190" cy="390" rx="15" ry="8" fill="none" stroke="#000000" stroke-width="2"/>
  
  <!-- الساق اليسرى (مرفوعة) -->
  <path d="M 120 310 Q 90 330 70 320" fill="none" stroke="#000000" stroke-width="3"/>
  <ellipse cx="70" cy="320" rx="15" ry="8" transform="rotate(-30 70 320)" fill="none" stroke="#000000" stroke-width="2"/>
  
  <!-- خطوط الحركة -->
  <path d="M 20 140 Q 25 145 30 140" fill="none" stroke="#ccc" stroke-width="2"/>
  <path d="M 220 130 Q 225 135 230 130" fill="none" stroke="#ccc" stroke-width="2"/>
  <path d="M 50 330 Q 55 335 60 330" fill="none" stroke="#ccc" stroke-width="2"/>
  
  <text x="150" y="30" text-anchor="middle" font-family="Arial" font-size="16" fill="#666">Labubu الراقص</text>
</svg>