<?xml version="1.0" encoding="UTF-8"?>
<svg width="300" height="400" viewBox="0 0 300 400" xmlns="http://www.w3.org/2000/svg">
  <!-- Labubu Royal Premium - Ø®Ø·ÙˆØ· Ù„Ù„ØªÙ„ÙˆÙŠÙ† -->
  
  <!-- Ø§Ù„ØªØ§Ø¬ -->
  <path d="M 100 60 L 110 40 L 130 50 L 150 30 L 170 50 L 190 40 L 200 60 Z" fill="none" stroke="#000000" stroke-width="3"/>
  <circle cx="150" cy="45" r="5" fill="none" stroke="#000000" stroke-width="2"/>
  <circle cx="120" cy="50" r="3" fill="none" stroke="#000000" stroke-width="1"/>
  <circle cx="180" cy="50" r="3" fill="none" stroke="#000000" stroke-width="1"/>
  
  <!-- Ø§Ù„Ø±Ø£Ø³ -->
  <circle cx="150" cy="120" r="75" fill="none" stroke="#000000" stroke-width="3"/>
  
  <!-- Ø§Ù„Ø£Ø°Ù†Ø§Ù† -->
  <ellipse cx="105" cy="85" rx="22" ry="28" fill="none" stroke="#000000" stroke-width="3"/>
  <ellipse cx="195" cy="85" rx="22" ry="28" fill="none" stroke="#000000" stroke-width="3"/>
  
  <!-- Ø§Ù„Ø¹ÙŠÙ†Ø§Ù† -->
  <circle cx="125" cy="110" r="16" fill="none" stroke="#000000" stroke-width="2"/>
  <circle cx="175" cy="110" r="16" fill="none" stroke="#000000" stroke-width="2"/>
  
  <!-- ØªÙ„Ø§Ù…ÙŠØ° Ø§Ù„Ø¹ÙŠÙ† -->
  <circle cx="125" cy="110" r="8" fill="none" stroke="#000000" stroke-width="1"/>
  <circle cx="175" cy="110" r="8" fill="none" stroke="#000000" stroke-width="1"/>
  
  <!-- Ø§Ù„Ø£Ù†Ù -->
  <path d="M 145 130 L 155 130 L 150 140 Z" fill="none" stroke="#000000" stroke-width="2"/>
  
  <!-- Ø§Ù„ÙÙ… -->
  <path d="M 130 155 Q 150 165 170 155" fill="none" stroke="#000000" stroke-width="2"/>
  
  <!-- Ø§Ù„Ø¬Ø³Ù… (Ø¹Ø¨Ø§Ø¡Ø© Ù…Ù„ÙƒÙŠØ©) -->
  <path d="M 80 200 Q 150 190 220 200 L 210 320 Q 150 330 90 320 Z" fill="none" stroke="#000000" stroke-width="3"/>
  
  <!-- ØªÙØ§ØµÙŠÙ„ Ø§Ù„Ø¹Ø¨Ø§Ø¡Ø© -->
  <path d="M 120 220 Q 150 210 180 220" fill="none" stroke="#000000" stroke-width="2"/>
  <path d="M 110 250 Q 150 240 190 250" fill="none" stroke="#000000" stroke-width="2"/>
  <path d="M 115 280 Q 150 270 185 280" fill="none" stroke="#000000" stroke-width="2"/>
  
  <!-- Ø§Ù„Ø°Ø±Ø§Ø¹Ø§Ù† -->
  <ellipse cx="70" cy="240" rx="18" ry="45" fill="none" stroke="#000000" stroke-width="3"/>
  <ellipse cx="230" cy="240" rx="18" ry="45" fill="none" stroke="#000000" stroke-width="3"/>
  
  <!-- Ø§Ù„ÙŠØ¯Ø§Ù† Ù…Ø¹ Ø®ÙˆØ§ØªÙ… -->
  <circle cx="70" cy="285" r="15" fill="none" stroke="#000000" stroke-width="2"/>
  <circle cx="230" cy="285" r="15" fill="none" stroke="#000000" stroke-width="2"/>
  <circle cx="70" cy="285" r="8" fill="none" stroke="#000000" stroke-width="1"/>
  <circle cx="230" cy="285" r="8" fill="none" stroke="#000000" stroke-width="1"/>
  
  <!-- Ø§Ù„Ø³Ø§Ù‚Ø§Ù† -->
  <rect x="125" y="320" width="18" height="50" fill="none" stroke="#000000" stroke-width="3"/>
  <rect x="157" y="320" width="18" height="50" fill="none" stroke="#000000" stroke-width="3"/>
  
  <!-- Ø£Ø­Ø°ÙŠØ© Ù…Ù„ÙƒÙŠØ© -->
  <path d="M 110 370 Q 134 385 150 370" fill="none" stroke="#000000" stroke-width="2"/>
  <path d="M 150 370 Q 175 385 190 370" fill="none" stroke="#000000" stroke-width="2"/>
  
  <!-- ØµÙˆÙ„Ø¬Ø§Ù† Ù…Ù„ÙƒÙŠ -->
  <line x1="260" y1="150" x2="260" y2="250" stroke="#000000" stroke-width="4"/>
  <circle cx="260" cy="140" r="12" fill="none" stroke="#000000" stroke-width="3"/>
  <path d="M 250 140 L 270 140 M 260 130 L 260 150" stroke="#000000" stroke-width="2"/>
  
  <text x="150" y="25" text-anchor="middle" font-family="Arial" font-size="16" fill="#666">Labubu Ø§Ù„Ù…Ù„ÙƒÙŠ ðŸ‘‘</text>
</svg>