<?xml version="1.0" encoding="UTF-8"?>
<svg width="300" height="400" viewBox="0 0 300 400" xmlns="http://www.w3.org/2000/svg">
  <!-- Labubu Happy - خطوط للتلوين -->
  
  <!-- الرأس -->
  <circle cx="150" cy="120" r="80" fill="none" stroke="#000000" stroke-width="3"/>
  
  <!-- الأذنان -->
  <circle cx="100" cy="80" r="25" fill="none" stroke="#000000" stroke-width="3"/>
  <circle cx="200" cy="80" r="25" fill="none" stroke="#000000" stroke-width="3"/>
  
  <!-- العينان -->
  <circle cx="125" cy="110" r="15" fill="none" stroke="#000000" stroke-width="2"/>
  <circle cx="175" cy="110" r="15" fill="none" stroke="#000000" stroke-width="2"/>
  
  <!-- الأنف -->
  <ellipse cx="150" cy="130" rx="8" ry="5" fill="none" stroke="#000000" stroke-width="2"/>
  
  <!-- الفم المبتسم -->
  <path d="M 120 150 Q 150 170 180 150" fill="none" stroke="#000000" stroke-width="2"/>
  
  <!-- الجسم -->
  <rect x="100" y="200" width="100" height="120" rx="20" fill="none" stroke="#000000" stroke-width="3"/>
  
  <!-- الذراعان -->
  <ellipse cx="80" cy="240" rx="15" ry="40" fill="none" stroke="#000000" stroke-width="3"/>
  <ellipse cx="220" cy="240" rx="15" ry="40" fill="none" stroke="#000000" stroke-width="3"/>
  
  <!-- اليدان -->
  <circle cx="80" cy="280" r="12" fill="none" stroke="#000000" stroke-width="2"/>
  <circle cx="220" cy="280" r="12" fill="none" stroke="#000000" stroke-width="2"/>
  
  <!-- الساقان -->
  <rect x="120" y="320" width="20" height="50" fill="none" stroke="#000000" stroke-width="3"/>
  <rect x="160" y="320" width="20" height="50" fill="none" stroke="#000000" stroke-width="3"/>
  
  <!-- القدمان -->
  <ellipse cx="130" cy="385" rx="15" ry="10" fill="none" stroke="#000000" stroke-width="2"/>
  <ellipse cx="170" cy="385" rx="15" ry="10" fill="none" stroke="#000000" stroke-width="2"/>
  
  <!-- تفاصيل إضافية -->
  <text x="150" y="30" text-anchor="middle" font-family="Arial" font-size="16" fill="#666">Labubu السعيد</text>
</svg>